<svg width="75px" height="75px" viewBox="0 0 75 75" version="1.1" xmlns="http://www.w3.org/2000/svg" xmlns:xlink="http://www.w3.org/1999/xlink">
    <defs>
        <path d="M46.5000001,29.8571485 L46.5000001,31.6428516 C46.5000001,33.2165235 42.5807423,34.5 37.75,34.5 C32.9192578,34.5 29,33.2165235 29,31.6428516 L29,29.8571485 C29,28.2834766 32.9192578,27 37.75,27 C42.5807423,27 46.5000001,28.2834766 46.5000001,29.8571485 Z M46.5000001,33.875 L46.5000001,37.8928516 C46.5000001,39.4665235 42.5807423,40.7500001 37.75,40.7500001 C32.9192578,40.7500001 29,39.4665235 29,37.8928516 L29,33.875 C30.8798828,35.1696485 34.320625,35.7723438 37.75,35.7723438 C41.1793751,35.7723438 44.6200782,35.1696485 46.5000001,33.875 Z M46.5000001,40.1250001 L46.5000001,44.1428516 C46.5000001,45.7165235 42.5807423,47.0000001 37.75,47.0000001 C32.9192578,47.0000001 29,45.7165235 29,44.1428516 L29,40.1250001 C30.8798828,41.4196485 34.320625,42.0223438 37.75,42.0223438 C41.1793751,42.0223438 44.6200782,41.4196485 46.5000001,40.1250001 Z" id="path-1"></path>
    </defs>
    <g id="Final-Designs" stroke="none" stroke-width="1" fill="none" fill-rule="evenodd">
        <g id="3.0-About" transform="translate(-1042.000000, -812.000000)">
            <g id="Group-9" transform="translate(265.000000, 811.000000)">
                <g id="Group-7" transform="translate(777.000000, 1.000000)">
                    <g id="Group-4-Copy-2" fill="#3F3F3F">
                        <circle id="Oval" cx="37.5" cy="37.5" r="37.5"></circle>
                    </g>
                    <mask id="mask-2" fill="white">
                        <use xlink:href="#path-1"></use>
                    </mask>
                    <use id="database" fill="#FFFFFF" fill-rule="nonzero" xlink:href="#path-1"></use>
                </g>
            </g>
        </g>
    </g>
</svg>